<svg id="visual" viewBox="0 0 900 600" width="900" height="600" xmlns="http://www.w3.org/2000/svg" xmlns:xlink="http://www.w3.org/1999/xlink" version="1.1"><path d="M0 491L30 473.7C60 456.3 120 421.7 180 404.5C240 387.3 300 387.7 360 405C420 422.3 480 456.7 540 482.7C600 508.7 660 526.3 720 534.3C780 542.3 840 540.7 870 539.8L900 539L900 601L870 601C840 601 780 601 720 601C660 601 600 601 540 601C480 601 420 601 360 601C300 601 240 601 180 601C120 601 60 601 30 601L0 601Z" fill="#61b16d"></path><path d="M0 479L30 482.3C60 485.7 120 492.3 180 480.8C240 469.3 300 439.7 360 441.2C420 442.7 480 475.3 540 499.2C600 523 660 538 720 543.5C780 549 840 545 870 543L900 541L900 601L870 601C840 601 780 601 720 601C660 601 600 601 540 601C480 601 420 601 360 601C300 601 240 601 180 601C120 601 60 601 30 601L0 601Z" fill="#519a5b"></path><path d="M0 449L30 469.8C60 490.7 120 532.3 180 545.5C240 558.7 300 543.3 360 533C420 522.7 480 517.3 540 519.2C600 521 660 530 720 521.8C780 513.7 840 488.3 870 475.7L900 463L900 601L870 601C840 601 780 601 720 601C660 601 600 601 540 601C480 601 420 601 360 601C300 601 240 601 180 601C120 601 60 601 30 601L0 601Z" fill="#418449"></path><path d="M0 553L30 558.5C60 564 120 575 180 576.3C240 577.7 300 569.3 360 557.7C420 546 480 531 540 519.8C600 508.7 660 501.3 720 508.2C780 515 840 536 870 546.5L900 557L900 601L870 601C840 601 780 601 720 601C660 601 600 601 540 601C480 601 420 601 360 601C300 601 240 601 180 601C120 601 60 601 30 601L0 601Z" fill="#316f38"></path><path d="M0 584L30 573.3C60 562.7 120 541.3 180 541C240 540.7 300 561.3 360 564C420 566.7 480 551.3 540 550.3C600 549.3 660 562.7 720 572.7C780 582.7 840 589.3 870 592.7L900 596L900 601L870 601C840 601 780 601 720 601C660 601 600 601 540 601C480 601 420 601 360 601C300 601 240 601 180 601C120 601 60 601 30 601L0 601Z" fill="#225a27"></path></svg>